<?xml version="1.0" encoding="UTF-8"?>
<!DOCTYPE score-partwise PUBLIC "-//Recordare//DTD MusicXML 3.0 Partwise//EN" "http://www.musicxml.org/dtds/partwise.dtd">
<score-partwise>
  <work>
    <work-number>Dodecachordon, Book 2</work-number>
    <work-title>Victimae paschali laudes</work-title>
    </work>
  <movement-number>p. 141: p. 176-177</movement-number>
  <movement-title>Victimae paschali laudes</movement-title>
  <identification>
    <creator type="arranger">Glarean</creator>
    <creator type="composer">Anonymous</creator>
    <creator type="lyricist">Easter Sequence, GR 242, p. 198</creator>
    <creator type="poet">Dorian/Hypodorian</creator>
    <encoding>
      <software>MuseScore 2.0.3.1</software>
      <encoding-date>2017-01-23</encoding-date>
      <supports element="accidental" type="yes"/>
      <supports element="beam" type="yes"/>
      <supports element="print" attribute="new-page" type="no"/>
      <supports element="print" attribute="new-system" type="no"/>
      <supports element="stem" type="yes"/>
      </encoding>
    </identification>
  <defaults>
    <scaling>
      <millimeters>7.05556</millimeters>
      <tenths>40</tenths>
      </scaling>
    <page-layout>
      <page-height>1584</page-height>
      <page-width>1224</page-width>
      <page-margins type="even">
        <left-margin>56.6929</left-margin>
        <right-margin>56.6929</right-margin>
        <top-margin>56.6929</top-margin>
        <bottom-margin>113.386</bottom-margin>
        </page-margins>
      <page-margins type="odd">
        <left-margin>56.6929</left-margin>
        <right-margin>56.6929</right-margin>
        <top-margin>56.6929</top-margin>
        <bottom-margin>113.386</bottom-margin>
        </page-margins>
      </page-layout>
    <word-font font-family="FreeSerif" font-size="10"/>
    <lyric-font font-family="FreeSerif" font-size="11"/>
    </defaults>
  <credit page="1">
    <credit-words default-x="1167.31" default-y="1402.31" justify="right" valign="bottom" font-size="12">Anonymous</credit-words>
    </credit>
  <credit page="1">
    <credit-words default-x="612" default-y="1527.31" justify="center" valign="top" font-size="24">Victimae paschali laudes (Easter Sequence)</credit-words>
    </credit>
  <part-list>
    <score-part id="P1">
      <part-name>Piano</part-name>
      <part-abbreviation>Pno.</part-abbreviation>
      <score-instrument id="P1-I1">
        <instrument-name>Piano</instrument-name>
        </score-instrument>
      <midi-device id="P1-I1" port="1"></midi-device>
      <midi-instrument id="P1-I1">
        <midi-channel>1</midi-channel>
        <midi-program>1</midi-program>
        <volume>78.7402</volume>
        <pan>0</pan>
        </midi-instrument>
      </score-part>
    </part-list>
  <part id="P1">
    <measure number="1" width="1110.61">
      <print>
        <system-layout>
          <system-margins>
            <left-margin>0.00</left-margin>
            <right-margin>0.00</right-margin>
            </system-margins>
          <top-system-distance>195.00</top-system-distance>
          </system-layout>
        </print>
      <attributes>
        <divisions>1</divisions>
        <key>
          <fifths>0</fifths>
          <mode>none</mode>
          </key>
        <time>
          <beats>63</beats>
          <beat-type>4</beat-type>
          </time>
        <clef>
          <sign>C</sign>
          <line>5</line>
          </clef>
        </attributes>
      <note default-x="96.99" default-y="-30.00">
        <pitch>
          <step>D</step>
          <octave>3</octave>
          </pitch>
        <duration>1</duration>
        <voice>1</voice>
        <type>quarter</type>
        <stem>none</stem>
        <lyric number="1">
          <syllabic>begin</syllabic>
          <text>Vic</text>
          </lyric>
        </note>
      <note default-x="146.51" default-y="-35.00">
        <pitch>
          <step>C</step>
          <octave>3</octave>
          </pitch>
        <duration>1</duration>
        <voice>1</voice>
        <type>quarter</type>
        <stem>none</stem>
        <lyric number="1">
          <syllabic>middle</syllabic>
          <text>ti</text>
          </lyric>
        </note>
      <note default-x="196.04" default-y="-30.00">
        <pitch>
          <step>D</step>
          <octave>3</octave>
          </pitch>
        <duration>1</duration>
        <voice>1</voice>
        <type>quarter</type>
        <stem>none</stem>
        <lyric number="1">
          <syllabic>end</syllabic>
          <text>mae</text>
          </lyric>
        </note>
      <note default-x="245.57" default-y="-20.00">
        <pitch>
          <step>F</step>
          <octave>3</octave>
          </pitch>
        <duration>1</duration>
        <voice>1</voice>
        <type>quarter</type>
        <stem>none</stem>
        <lyric number="1">
          <syllabic>begin</syllabic>
          <text>pa</text>
          </lyric>
        </note>
      <note default-x="295.10" default-y="-15.00">
        <pitch>
          <step>G</step>
          <octave>3</octave>
          </pitch>
        <duration>1</duration>
        <voice>1</voice>
        <type>quarter</type>
        <stem>none</stem>
        <lyric number="1">
          <syllabic>middle</syllabic>
          <text>scha</text>
          </lyric>
        </note>
      <note default-x="344.63" default-y="-20.00">
        <pitch>
          <step>F</step>
          <octave>3</octave>
          </pitch>
        <duration>1</duration>
        <voice>1</voice>
        <type>quarter</type>
        <stem>none</stem>
        <lyric number="1">
          <syllabic>end</syllabic>
          <text>li</text>
          </lyric>
        </note>
      <note default-x="394.15" default-y="-25.00">
        <pitch>
          <step>E</step>
          <octave>3</octave>
          </pitch>
        <duration>1</duration>
        <voice>1</voice>
        <type>quarter</type>
        <stem>none</stem>
        <lyric number="1">
          <syllabic>begin</syllabic>
          <text>lau</text>
          </lyric>
        </note>
      <note default-x="443.68" default-y="-30.00">
        <pitch>
          <step>D</step>
          <octave>3</octave>
          </pitch>
        <duration>1</duration>
        <voice>1</voice>
        <type>quarter</type>
        <stem>none</stem>
        <lyric number="1">
          <syllabic>end</syllabic>
          <text>des</text>
          </lyric>
        </note>
      <note default-x="493.21" default-y="-10.00">
        <pitch>
          <step>A</step>
          <octave>3</octave>
          </pitch>
        <duration>1</duration>
        <voice>1</voice>
        <type>quarter</type>
        <stem>none</stem>
        <lyric number="1">
          <syllabic>begin</syllabic>
          <text>im</text>
          </lyric>
        </note>
      <note default-x="542.74" default-y="-15.00">
        <pitch>
          <step>G</step>
          <octave>3</octave>
          </pitch>
        <duration>1</duration>
        <voice>1</voice>
        <type>quarter</type>
        <stem>none</stem>
        <lyric number="1">
          <syllabic>middle</syllabic>
          <text>mo</text>
          </lyric>
        </note>
      <note default-x="592.27" default-y="-20.00">
        <pitch>
          <step>F</step>
          <octave>3</octave>
          </pitch>
        <duration>1</duration>
        <voice>1</voice>
        <type>quarter</type>
        <stem>none</stem>
        <lyric number="1">
          <syllabic>end</syllabic>
          <text>lent</text>
          </lyric>
        </note>
      <note default-x="641.80" default-y="-15.00">
        <pitch>
          <step>G</step>
          <octave>3</octave>
          </pitch>
        <duration>1</duration>
        <voice>1</voice>
        <type>quarter</type>
        <stem>none</stem>
        <lyric number="1">
          <syllabic>begin</syllabic>
          <text>Chris</text>
          </lyric>
        </note>
      <note default-x="691.32" default-y="-20.00">
        <pitch>
          <step>F</step>
          <octave>3</octave>
          </pitch>
        <duration>1</duration>
        <voice>1</voice>
        <type>quarter</type>
        <stem>none</stem>
        <lyric number="1">
          <syllabic>middle</syllabic>
          <text>ti</text>
          </lyric>
        </note>
      <note default-x="740.85" default-y="-25.00">
        <pitch>
          <step>E</step>
          <octave>3</octave>
          </pitch>
        <duration>1</duration>
        <voice>1</voice>
        <type>quarter</type>
        <stem>none</stem>
        <lyric number="1">
          <syllabic>middle</syllabic>
          <text>a</text>
          </lyric>
        </note>
      <note default-x="790.38" default-y="-30.00">
        <pitch>
          <step>D</step>
          <octave>3</octave>
          </pitch>
        <duration>1</duration>
        <voice>1</voice>
        <type>quarter</type>
        <stem>none</stem>
        <notations>
          <articulations>
            <caesura/>
            </articulations>
          </notations>
        <lyric number="1">
          <syllabic>end</syllabic>
          <text>ni.</text>
          </lyric>
        </note>
      <note default-x="861.37" default-y="-10.00">
        <pitch>
          <step>A</step>
          <octave>3</octave>
          </pitch>
        <duration>1</duration>
        <voice>1</voice>
        <type>quarter</type>
        <stem>none</stem>
        <lyric number="1">
          <syllabic>begin</syllabic>
          <text>Ag</text>
          </lyric>
        </note>
      <note default-x="910.90" default-y="0.00">
        <pitch>
          <step>C</step>
          <octave>4</octave>
          </pitch>
        <duration>1</duration>
        <voice>1</voice>
        <type>quarter</type>
        <stem>none</stem>
        <lyric number="1">
          <syllabic>end</syllabic>
          <text>nus</text>
          </lyric>
        </note>
      <note default-x="960.43" default-y="5.00">
        <pitch>
          <step>D</step>
          <octave>4</octave>
          </pitch>
        <duration>1</duration>
        <voice>1</voice>
        <type>quarter</type>
        <stem>none</stem>
        <lyric number="1">
          <syllabic>begin</syllabic>
          <text>re</text>
          </lyric>
        </note>
      <note default-x="1009.96" default-y="-10.00">
        <pitch>
          <step>A</step>
          <octave>3</octave>
          </pitch>
        <duration>1</duration>
        <voice>1</voice>
        <type>quarter</type>
        <stem>none</stem>
        <lyric number="1">
          <syllabic>middle</syllabic>
          <text>de</text>
          </lyric>
        </note>
      <note default-x="1059.49" default-y="-15.00">
        <pitch>
          <step>G</step>
          <octave>3</octave>
          </pitch>
        <duration>1</duration>
        <voice>1</voice>
        <type>quarter</type>
        <stem>none</stem>
        <lyric number="1">
          <syllabic>end</syllabic>
          <text>mit</text>
          </lyric>
        </note>
      </measure>
    <measure number="2" width="1110.61">
      <note default-x="56.10" default-y="-10.00">
        <pitch>
          <step>A</step>
          <octave>3</octave>
          </pitch>
        <duration>1</duration>
        <voice>1</voice>
        <type>quarter</type>
        <stem>none</stem>
        <lyric number="1">
          <syllabic>begin</syllabic>
          <text>o</text>
          </lyric>
        </note>
      <note default-x="101.42" default-y="-10.00">
        <pitch>
          <step>A</step>
          <octave>3</octave>
          </pitch>
        <duration>1</duration>
        <voice>1</voice>
        <type>quarter</type>
        <stem>none</stem>
        <lyric number="1">
          <syllabic>end</syllabic>
          <text>ves,</text>
          </lyric>
        </note>
      <note default-x="171.40" default-y="-10.00">
        <pitch>
          <step>A</step>
          <octave>3</octave>
          </pitch>
        <duration>1</duration>
        <voice>1</voice>
        <type>quarter</type>
        <stem>none</stem>
        <lyric number="1">
          <syllabic>begin</syllabic>
          <text>CHRIS</text>
          </lyric>
        </note>
      <note default-x="216.71" default-y="-15.00">
        <pitch>
          <step>G</step>
          <octave>3</octave>
          </pitch>
        <duration>1</duration>
        <voice>1</voice>
        <type>quarter</type>
        <stem>none</stem>
        <lyric number="1">
          <syllabic>end</syllabic>
          <text>TUS</text>
          </lyric>
        </note>
      <note default-x="262.03" default-y="-10.00">
        <pitch>
          <step>A</step>
          <octave>3</octave>
          </pitch>
        <duration>1</duration>
        <voice>1</voice>
        <type>quarter</type>
        <stem>none</stem>
        <lyric number="1">
          <syllabic>begin</syllabic>
          <text>i</text>
          </lyric>
        </note>
      <note default-x="307.35" default-y="-15.00">
        <pitch>
          <step>G</step>
          <octave>3</octave>
          </pitch>
        <duration>1</duration>
        <voice>1</voice>
        <type>quarter</type>
        <stem>none</stem>
        <lyric number="1">
          <syllabic>middle</syllabic>
          <text>no</text>
          </lyric>
        </note>
      <note default-x="352.66" default-y="-20.00">
        <pitch>
          <step>F</step>
          <octave>3</octave>
          </pitch>
        <duration>1</duration>
        <voice>1</voice>
        <type>quarter</type>
        <stem>none</stem>
        <lyric number="1">
          <syllabic>end</syllabic>
          <text>cens</text>
          </lyric>
        </note>
      <note default-x="397.98" default-y="-25.00">
        <pitch>
          <step>E</step>
          <octave>3</octave>
          </pitch>
        <duration>1</duration>
        <voice>1</voice>
        <type>quarter</type>
        <stem>none</stem>
        <lyric number="1">
          <syllabic>begin</syllabic>
          <text>Pa</text>
          </lyric>
        </note>
      <note default-x="443.29" default-y="-30.00">
        <pitch>
          <step>D</step>
          <octave>3</octave>
          </pitch>
        <duration>1</duration>
        <voice>1</voice>
        <type>quarter</type>
        <stem>none</stem>
        <lyric number="1">
          <syllabic>end</syllabic>
          <text>tri</text>
          </lyric>
        </note>
      <note default-x="488.61" default-y="-20.00">
        <pitch>
          <step>F</step>
          <octave>3</octave>
          </pitch>
        <duration>1</duration>
        <voice>1</voice>
        <type>quarter</type>
        <stem>none</stem>
        <lyric number="1">
          <syllabic>begin</syllabic>
          <text>re</text>
          </lyric>
        </note>
      <note default-x="533.92" default-y="-15.00">
        <pitch>
          <step>G</step>
          <octave>3</octave>
          </pitch>
        <duration>1</duration>
        <voice>1</voice>
        <type>quarter</type>
        <stem>none</stem>
        <lyric number="1">
          <syllabic>end</syllabic>
          <text>con</text>
          </lyric>
        </note>
      <note default-x="579.24" default-y="-30.00">
        <pitch>
          <step>D</step>
          <octave>3</octave>
          </pitch>
        <duration>1</duration>
        <voice>1</voice>
        <type>quarter</type>
        <stem>none</stem>
        <lyric number="1">
          <syllabic>begin</syllabic>
          <text>ci</text>
          </lyric>
        </note>
      <note default-x="624.55" default-y="-20.00">
        <pitch>
          <step>F</step>
          <octave>3</octave>
          </pitch>
        <duration>1</duration>
        <voice>1</voice>
        <type>quarter</type>
        <stem>none</stem>
        <lyric number="1">
          <syllabic>middle</syllabic>
          <text>li</text>
          </lyric>
        </note>
      <note default-x="669.87" default-y="-30.00">
        <pitch>
          <step>D</step>
          <octave>3</octave>
          </pitch>
        <duration>1</duration>
        <voice>1</voice>
        <type>quarter</type>
        <stem>none</stem>
        <lyric number="1">
          <syllabic>middle</syllabic>
          <text>a</text>
          </lyric>
        </note>
      <note default-x="715.18" default-y="-35.00">
        <pitch>
          <step>C</step>
          <octave>3</octave>
          </pitch>
        <duration>1</duration>
        <voice>1</voice>
        <type>quarter</type>
        <stem>none</stem>
        <lyric number="1">
          <syllabic>end</syllabic>
          <text>vit</text>
          </lyric>
        </note>
      <note default-x="760.50" default-y="-20.00">
        <pitch>
          <step>F</step>
          <octave>3</octave>
          </pitch>
        <duration>1</duration>
        <voice>1</voice>
        <type>quarter</type>
        <stem>none</stem>
        <lyric number="1">
          <syllabic>begin</syllabic>
          <text>pe</text>
          </lyric>
        </note>
      <note default-x="805.81" default-y="-20.00">
        <pitch>
          <step>F</step>
          <octave>3</octave>
          </pitch>
        <duration>1</duration>
        <voice>1</voice>
        <type>quarter</type>
        <stem>none</stem>
        <lyric number="1">
          <syllabic>middle</syllabic>
          <text>ca</text>
          </lyric>
        </note>
      <note default-x="851.13" default-y="-25.00">
        <pitch>
          <step>E</step>
          <octave>3</octave>
          </pitch>
        <duration>1</duration>
        <voice>1</voice>
        <type>quarter</type>
        <stem>none</stem>
        <lyric number="1">
          <syllabic>middle</syllabic>
          <text>tor</text>
          </lyric>
        </note>
      <note default-x="896.44" default-y="-30.00">
        <pitch>
          <step>D</step>
          <octave>3</octave>
          </pitch>
        <duration>1</duration>
        <voice>1</voice>
        <type>quarter</type>
        <stem>none</stem>
        <notations>
          <articulations>
            <caesura/>
            </articulations>
          </notations>
        <lyric number="1">
          <syllabic>end</syllabic>
          <text>es.</text>
          </lyric>
        </note>
      <note default-x="973.07" default-y="-10.00">
        <pitch>
          <step>A</step>
          <octave>3</octave>
          </pitch>
        <duration>1</duration>
        <voice>1</voice>
        <type>quarter</type>
        <stem>none</stem>
        <lyric number="1">
          <syllabic>single</syllabic>
          <text>Mors</text>
          </lyric>
        </note>
      <note default-x="1018.38" default-y="0.00">
        <pitch>
          <step>C</step>
          <octave>4</octave>
          </pitch>
        <duration>1</duration>
        <voice>1</voice>
        <type>quarter</type>
        <stem>none</stem>
        <lyric number="1">
          <syllabic>single</syllabic>
          <text>et</text>
          </lyric>
        </note>
      <note default-x="1063.70" default-y="5.00">
        <pitch>
          <step>D</step>
          <octave>4</octave>
          </pitch>
        <duration>1</duration>
        <voice>1</voice>
        <type>quarter</type>
        <stem>none</stem>
        <lyric number="1">
          <syllabic>begin</syllabic>
          <text>vi</text>
          </lyric>
        </note>
      </measure>
    <measure number="3" width="1110.61">
      <note default-x="57.41" default-y="-10.00">
        <pitch>
          <step>A</step>
          <octave>3</octave>
          </pitch>
        <duration>1</duration>
        <voice>1</voice>
        <type>quarter</type>
        <stem>none</stem>
        <lyric number="1">
          <syllabic>end</syllabic>
          <text>ta</text>
          </lyric>
        </note>
      <note default-x="106.29" default-y="-15.00">
        <pitch>
          <step>G</step>
          <octave>3</octave>
          </pitch>
        <duration>1</duration>
        <voice>1</voice>
        <type>quarter</type>
        <stem>none</stem>
        <lyric number="1">
          <syllabic>begin</syllabic>
          <text>du</text>
          </lyric>
        </note>
      <note default-x="155.18" default-y="-10.00">
        <pitch>
          <step>A</step>
          <octave>3</octave>
          </pitch>
        <duration>1</duration>
        <voice>1</voice>
        <type>quarter</type>
        <stem>none</stem>
        <lyric number="1">
          <syllabic>middle</syllabic>
          <text>el</text>
          </lyric>
        </note>
      <note default-x="204.07" default-y="-10.00">
        <pitch>
          <step>A</step>
          <octave>3</octave>
          </pitch>
        <duration>1</duration>
        <voice>1</voice>
        <type>quarter</type>
        <stem>none</stem>
        <lyric number="1">
          <syllabic>end</syllabic>
          <text>lo</text>
          </lyric>
        </note>
      <note default-x="252.95" default-y="-10.00">
        <pitch>
          <step>A</step>
          <octave>3</octave>
          </pitch>
        <duration>1</duration>
        <voice>1</voice>
        <type>quarter</type>
        <stem>none</stem>
        <lyric number="1">
          <syllabic>begin</syllabic>
          <text>con</text>
          </lyric>
        </note>
      <note default-x="301.84" default-y="-15.00">
        <pitch>
          <step>G</step>
          <octave>3</octave>
          </pitch>
        <duration>1</duration>
        <voice>1</voice>
        <type>quarter</type>
        <stem>none</stem>
        <lyric number="1">
          <syllabic>middle</syllabic>
          <text>fli</text>
          </lyric>
        </note>
      <note default-x="350.72" default-y="-10.00">
        <pitch>
          <step>A</step>
          <octave>3</octave>
          </pitch>
        <duration>1</duration>
        <voice>1</voice>
        <type>quarter</type>
        <stem>none</stem>
        <lyric number="1">
          <syllabic>middle</syllabic>
          <text>xe</text>
          </lyric>
        </note>
      <note default-x="399.61" default-y="-15.00">
        <pitch>
          <step>G</step>
          <octave>3</octave>
          </pitch>
        <duration>1</duration>
        <voice>1</voice>
        <type>quarter</type>
        <stem>none</stem>
        <lyric number="1">
          <syllabic>end</syllabic>
          <text>re</text>
          </lyric>
        </note>
      <note default-x="448.50" default-y="-20.00">
        <pitch>
          <step>F</step>
          <octave>3</octave>
          </pitch>
        <duration>1</duration>
        <voice>1</voice>
        <type>quarter</type>
        <stem>none</stem>
        <lyric number="1">
          <syllabic>begin</syllabic>
          <text>mi</text>
          </lyric>
        </note>
      <note default-x="497.38" default-y="-25.00">
        <pitch>
          <step>E</step>
          <octave>3</octave>
          </pitch>
        <duration>1</duration>
        <voice>1</voice>
        <type>quarter</type>
        <stem>none</stem>
        <lyric number="1">
          <syllabic>middle</syllabic>
          <text>ran</text>
          </lyric>
        </note>
      <note default-x="546.27" default-y="-30.00">
        <pitch>
          <step>D</step>
          <octave>3</octave>
          </pitch>
        <duration>1</duration>
        <voice>1</voice>
        <type>quarter</type>
        <stem>none</stem>
        <lyric number="1">
          <syllabic>end</syllabic>
          <text>do,</text>
          </lyric>
        </note>
      <note default-x="595.15" default-y="-20.00">
        <pitch>
          <step>F</step>
          <octave>3</octave>
          </pitch>
        <duration>1</duration>
        <voice>1</voice>
        <type>quarter</type>
        <stem>none</stem>
        <lyric number="1">
          <syllabic>single</syllabic>
          <text>Dux</text>
          </lyric>
        </note>
      <note default-x="644.04" default-y="-15.00">
        <pitch>
          <step>G</step>
          <octave>3</octave>
          </pitch>
        <duration>1</duration>
        <voice>1</voice>
        <type>quarter</type>
        <stem>none</stem>
        <lyric number="1">
          <syllabic>begin</syllabic>
          <text>vi</text>
          </lyric>
        </note>
      <note default-x="692.93" default-y="-30.00">
        <pitch>
          <step>D</step>
          <octave>3</octave>
          </pitch>
        <duration>1</duration>
        <voice>1</voice>
        <type>quarter</type>
        <stem>none</stem>
        <lyric number="1">
          <syllabic>end</syllabic>
          <text>te</text>
          </lyric>
        </note>
      <note default-x="741.81" default-y="-20.00">
        <pitch>
          <step>F</step>
          <octave>3</octave>
          </pitch>
        <duration>1</duration>
        <voice>1</voice>
        <type>quarter</type>
        <stem>none</stem>
        <lyric number="1">
          <syllabic>begin</syllabic>
          <text>mor</text>
          </lyric>
        </note>
      <note default-x="790.70" default-y="-30.00">
        <pitch>
          <step>D</step>
          <octave>3</octave>
          </pitch>
        <duration>1</duration>
        <voice>1</voice>
        <type>quarter</type>
        <stem>none</stem>
        <lyric number="1">
          <syllabic>middle</syllabic>
          <text>tu</text>
          </lyric>
        </note>
      <note default-x="839.58" default-y="-35.00">
        <pitch>
          <step>C</step>
          <octave>3</octave>
          </pitch>
        <duration>1</duration>
        <voice>1</voice>
        <type>quarter</type>
        <stem>none</stem>
        <lyric number="1">
          <syllabic>end</syllabic>
          <text>us</text>
          </lyric>
        </note>
      <note default-x="888.47" default-y="-20.00">
        <pitch>
          <step>F</step>
          <octave>3</octave>
          </pitch>
        <duration>1</duration>
        <voice>1</voice>
        <type>quarter</type>
        <stem>none</stem>
        <lyric number="1">
          <syllabic>begin</syllabic>
          <text>reg</text>
          </lyric>
        </note>
      <note default-x="937.36" default-y="-20.00">
        <pitch>
          <step>F</step>
          <octave>3</octave>
          </pitch>
        <duration>1</duration>
        <voice>1</voice>
        <type>quarter</type>
        <stem>none</stem>
        <lyric number="1">
          <syllabic>end</syllabic>
          <text>nat</text>
          </lyric>
        </note>
      <note default-x="986.24" default-y="-25.00">
        <pitch>
          <step>E</step>
          <octave>3</octave>
          </pitch>
        <duration>1</duration>
        <voice>1</voice>
        <type>quarter</type>
        <stem>none</stem>
        <lyric number="1">
          <syllabic>begin</syllabic>
          <text>vi</text>
          </lyric>
        </note>
      <note default-x="1035.13" default-y="-30.00">
        <pitch>
          <step>D</step>
          <octave>3</octave>
          </pitch>
        <duration>1</duration>
        <voice>1</voice>
        <type>quarter</type>
        <stem>none</stem>
        <notations>
          <articulations>
            <caesura/>
            </articulations>
          </notations>
        <lyric number="1">
          <syllabic>end</syllabic>
          <text>vus.</text>
          </lyric>
        </note>
      </measure>
    <measure number="4" width="1110.61">
      <note default-x="65.35" default-y="-45.00">
        <pitch>
          <step>A</step>
          <octave>2</octave>
          </pitch>
        <duration>1</duration>
        <voice>1</voice>
        <type>quarter</type>
        <stem>none</stem>
        <lyric number="1">
          <syllabic>single</syllabic>
          <text>Dic</text>
          </lyric>
        </note>
      <note default-x="114.28" default-y="-35.00">
        <pitch>
          <step>C</step>
          <octave>3</octave>
          </pitch>
        <duration>1</duration>
        <voice>1</voice>
        <type>quarter</type>
        <stem>none</stem>
        <lyric number="1">
          <syllabic>begin</syllabic>
          <text>no</text>
          </lyric>
        </note>
      <note default-x="163.21" default-y="-30.00">
        <pitch>
          <step>D</step>
          <octave>3</octave>
          </pitch>
        <duration>1</duration>
        <voice>1</voice>
        <type>quarter</type>
        <stem>none</stem>
        <lyric number="1">
          <syllabic>end</syllabic>
          <text>bis</text>
          </lyric>
        </note>
      <note default-x="212.14" default-y="-20.00">
        <pitch>
          <step>F</step>
          <octave>3</octave>
          </pitch>
        <duration>1</duration>
        <voice>1</voice>
        <type>quarter</type>
        <stem>none</stem>
        <lyric number="1">
          <syllabic>begin</syllabic>
          <text>Ma</text>
          </lyric>
        </note>
      <note default-x="261.07" default-y="-15.00">
        <pitch>
          <step>G</step>
          <octave>3</octave>
          </pitch>
        <duration>1</duration>
        <voice>1</voice>
        <type>quarter</type>
        <stem>none</stem>
        <lyric number="1">
          <syllabic>middle</syllabic>
          <text>ri</text>
          </lyric>
        </note>
      <note default-x="310.00" default-y="-30.00">
        <pitch>
          <step>D</step>
          <octave>3</octave>
          </pitch>
        <duration>1</duration>
        <voice>1</voice>
        <type>quarter</type>
        <stem>none</stem>
        <lyric number="1">
          <syllabic>end</syllabic>
          <text>a</text>
          </lyric>
        </note>
      <note default-x="358.94" default-y="-35.00">
        <pitch>
          <step>C</step>
          <octave>3</octave>
          </pitch>
        <duration>1</duration>
        <voice>1</voice>
        <type>quarter</type>
        <stem>none</stem>
        <lyric number="1">
          <syllabic>single</syllabic>
          <text>quid</text>
          </lyric>
        </note>
      <note default-x="407.87" default-y="-20.00">
        <pitch>
          <step>F</step>
          <octave>3</octave>
          </pitch>
        <duration>1</duration>
        <voice>1</voice>
        <type>quarter</type>
        <stem>none</stem>
        <lyric number="1">
          <syllabic>begin</syllabic>
          <text>vi</text>
          </lyric>
        </note>
      <note default-x="456.80" default-y="-25.00">
        <pitch>
          <step>E</step>
          <octave>3</octave>
          </pitch>
        <duration>1</duration>
        <voice>1</voice>
        <type>quarter</type>
        <stem>none</stem>
        <lyric number="1">
          <syllabic>middle</syllabic>
          <text>dis</text>
          </lyric>
        </note>
      <note default-x="505.73" default-y="-30.00">
        <pitch>
          <step>D</step>
          <octave>3</octave>
          </pitch>
        <duration>1</duration>
        <voice>1</voice>
        <type>quarter</type>
        <stem>none</stem>
        <lyric number="1">
          <syllabic>end</syllabic>
          <text>ti</text>
          </lyric>
        </note>
      <note default-x="554.66" default-y="-25.00">
        <pitch>
          <step>E</step>
          <octave>3</octave>
          </pitch>
        <duration>1</duration>
        <voice>1</voice>
        <type>quarter</type>
        <stem>none</stem>
        <lyric number="1">
          <syllabic>single</syllabic>
          <text>in</text>
          </lyric>
        </note>
      <note default-x="603.60" default-y="-35.00">
        <pitch>
          <step>C</step>
          <octave>3</octave>
          </pitch>
        <duration>1</duration>
        <voice>1</voice>
        <type>quarter</type>
        <stem>none</stem>
        <lyric number="1">
          <syllabic>begin</syllabic>
          <text>vi</text>
          </lyric>
        </note>
      <note default-x="652.53" default-y="-30.00">
        <pitch>
          <step>D</step>
          <octave>3</octave>
          </pitch>
        <duration>1</duration>
        <voice>1</voice>
        <type>quarter</type>
        <stem>none</stem>
        <lyric number="1">
          <syllabic>end</syllabic>
          <text>a?</text>
          </lyric>
        </note>
      <note default-x="701.46" default-y="-20.00">
        <pitch>
          <step>F</step>
          <octave>3</octave>
          </pitch>
        <duration>1</duration>
        <voice>1</voice>
        <type>quarter</type>
        <stem>none</stem>
        <lyric number="1">
          <syllabic>begin</syllabic>
          <text>Se</text>
          </lyric>
        </note>
      <note default-x="750.39" default-y="-10.00">
        <pitch>
          <step>A</step>
          <octave>3</octave>
          </pitch>
        <duration>1</duration>
        <voice>1</voice>
        <type>quarter</type>
        <stem>none</stem>
        <lyric number="1">
          <syllabic>middle</syllabic>
          <text>pul</text>
          </lyric>
        </note>
      <note default-x="799.32" default-y="-15.00">
        <pitch>
          <step>G</step>
          <octave>3</octave>
          </pitch>
        <duration>1</duration>
        <voice>1</voice>
        <type>quarter</type>
        <stem>none</stem>
        <lyric number="1">
          <syllabic>end</syllabic>
          <text>crum</text>
          </lyric>
        </note>
      <note default-x="864.35" default-y="-10.00">
        <pitch>
          <step>A</step>
          <octave>3</octave>
          </pitch>
        <duration>1</duration>
        <voice>1</voice>
        <type>quarter</type>
        <stem>none</stem>
        <lyric number="1">
          <syllabic>begin</syllabic>
          <text>CHRIS</text>
          </lyric>
        </note>
      <note default-x="913.29" default-y="-20.00">
        <pitch>
          <step>F</step>
          <octave>3</octave>
          </pitch>
        <duration>1</duration>
        <voice>1</voice>
        <type>quarter</type>
        <stem>none</stem>
        <lyric number="1">
          <syllabic>end</syllabic>
          <text>STI</text>
          </lyric>
        </note>
      <note default-x="962.22" default-y="-15.00">
        <pitch>
          <step>G</step>
          <octave>3</octave>
          </pitch>
        <duration>1</duration>
        <voice>1</voice>
        <type>quarter</type>
        <stem>none</stem>
        <lyric number="1">
          <syllabic>begin</syllabic>
          <text>vi</text>
          </lyric>
        </note>
      <note default-x="1011.15" default-y="-25.00">
        <pitch>
          <step>E</step>
          <octave>3</octave>
          </pitch>
        <duration>1</duration>
        <voice>1</voice>
        <type>quarter</type>
        <stem>none</stem>
        <lyric number="1">
          <syllabic>middle</syllabic>
          <text>ven</text>
          </lyric>
        </note>
      <note default-x="1060.08" default-y="-30.00">
        <pitch>
          <step>D</step>
          <octave>3</octave>
          </pitch>
        <duration>1</duration>
        <voice>1</voice>
        <type>quarter</type>
        <stem>none</stem>
        <lyric number="1">
          <syllabic>end</syllabic>
          <text>tis,</text>
          </lyric>
        </note>
      </measure>
    <measure number="5" width="1110.61">
      <note default-x="57.50" default-y="-30.00">
        <pitch>
          <step>D</step>
          <octave>3</octave>
          </pitch>
        <duration>1</duration>
        <voice>1</voice>
        <type>quarter</type>
        <stem>none</stem>
        <lyric number="1">
          <syllabic>single</syllabic>
          <text>et</text>
          </lyric>
        </note>
      <note default-x="106.54" default-y="-15.00">
        <pitch>
          <step>G</step>
          <octave>3</octave>
          </pitch>
        <duration>1</duration>
        <voice>1</voice>
        <type>quarter</type>
        <stem>none</stem>
        <lyric number="1">
          <syllabic>begin</syllabic>
          <text>glo</text>
          </lyric>
        </note>
      <note default-x="155.58" default-y="-20.00">
        <pitch>
          <step>F</step>
          <octave>3</octave>
          </pitch>
        <duration>1</duration>
        <voice>1</voice>
        <type>quarter</type>
        <stem>none</stem>
        <lyric number="1">
          <syllabic>middle</syllabic>
          <text>ri</text>
          </lyric>
        </note>
      <note default-x="204.62" default-y="-15.00">
        <pitch>
          <step>G</step>
          <octave>3</octave>
          </pitch>
        <duration>1</duration>
        <voice>1</voice>
        <type>quarter</type>
        <stem>none</stem>
        <lyric number="1">
          <syllabic>end</syllabic>
          <text>am</text>
          </lyric>
        </note>
      <note default-x="253.65" default-y="-10.00">
        <pitch>
          <step>A</step>
          <octave>3</octave>
          </pitch>
        <duration>1</duration>
        <voice>1</voice>
        <type>quarter</type>
        <stem>none</stem>
        <lyric number="1">
          <syllabic>begin</syllabic>
          <text>vi</text>
          </lyric>
        </note>
      <note default-x="302.69" default-y="-15.00">
        <pitch>
          <step>G</step>
          <octave>3</octave>
          </pitch>
        <duration>1</duration>
        <voice>1</voice>
        <type>quarter</type>
        <stem>none</stem>
        <lyric number="1">
          <syllabic>end</syllabic>
          <text>di</text>
          </lyric>
        </note>
      <note default-x="351.73" default-y="-20.00">
        <pitch>
          <step>F</step>
          <octave>3</octave>
          </pitch>
        <duration>1</duration>
        <voice>1</voice>
        <type>quarter</type>
        <stem>none</stem>
        <lyric number="1">
          <syllabic>begin</syllabic>
          <text>re</text>
          </lyric>
        </note>
      <note default-x="400.77" default-y="-15.00">
        <pitch>
          <step>G</step>
          <octave>3</octave>
          </pitch>
        <duration>1</duration>
        <voice>1</voice>
        <type>quarter</type>
        <stem>none</stem>
        <lyric number="1">
          <syllabic>middle</syllabic>
          <text>sur</text>
          </lyric>
        </note>
      <note default-x="449.81" default-y="-25.00">
        <pitch>
          <step>E</step>
          <octave>3</octave>
          </pitch>
        <duration>1</duration>
        <voice>1</voice>
        <type>quarter</type>
        <stem>none</stem>
        <lyric number="1">
          <syllabic>middle</syllabic>
          <text>gen</text>
          </lyric>
        </note>
      <note default-x="498.84" default-y="-30.00">
        <pitch>
          <step>D</step>
          <octave>3</octave>
          </pitch>
        <duration>1</duration>
        <voice>1</voice>
        <type>quarter</type>
        <stem>none</stem>
        <notations>
          <articulations>
            <caesura/>
            </articulations>
          </notations>
        <lyric number="1">
          <syllabic>end</syllabic>
          <text>tis,</text>
          </lyric>
        </note>
      <note default-x="569.60" default-y="-45.00">
        <pitch>
          <step>A</step>
          <octave>2</octave>
          </pitch>
        <duration>1</duration>
        <voice>1</voice>
        <type>quarter</type>
        <stem>none</stem>
        <lyric number="1">
          <syllabic>begin</syllabic>
          <text>An</text>
          </lyric>
        </note>
      <note default-x="618.63" default-y="-35.00">
        <pitch>
          <step>C</step>
          <octave>3</octave>
          </pitch>
        <duration>1</duration>
        <voice>1</voice>
        <type>quarter</type>
        <stem>none</stem>
        <lyric number="1">
          <syllabic>middle</syllabic>
          <text>ge</text>
          </lyric>
        </note>
      <note default-x="667.67" default-y="-30.00">
        <pitch>
          <step>D</step>
          <octave>3</octave>
          </pitch>
        <duration>1</duration>
        <voice>1</voice>
        <type>quarter</type>
        <stem>none</stem>
        <lyric number="1">
          <syllabic>middle</syllabic>
          <text>li</text>
          </lyric>
        </note>
      <note default-x="716.71" default-y="-20.00">
        <pitch>
          <step>F</step>
          <octave>3</octave>
          </pitch>
        <duration>1</duration>
        <voice>1</voice>
        <type>quarter</type>
        <stem>none</stem>
        <lyric number="1">
          <syllabic>end</syllabic>
          <text>cos</text>
          </lyric>
        </note>
      <note default-x="765.75" default-y="-15.00">
        <pitch>
          <step>G</step>
          <octave>3</octave>
          </pitch>
        <duration>1</duration>
        <voice>1</voice>
        <type>quarter</type>
        <stem>none</stem>
        <lyric number="1">
          <syllabic>begin</syllabic>
          <text>te</text>
          </lyric>
        </note>
      <note default-x="814.79" default-y="-30.00">
        <pitch>
          <step>D</step>
          <octave>3</octave>
          </pitch>
        <duration>1</duration>
        <voice>1</voice>
        <type>quarter</type>
        <stem>none</stem>
        <lyric number="1">
          <syllabic>end</syllabic>
          <text>stes,</text>
          </lyric>
        </note>
      <note default-x="863.82" default-y="-35.00">
        <pitch>
          <step>C</step>
          <octave>3</octave>
          </pitch>
        <duration>1</duration>
        <voice>1</voice>
        <type>quarter</type>
        <stem>none</stem>
        <lyric number="1">
          <syllabic>begin</syllabic>
          <text>su</text>
          </lyric>
        </note>
      <note default-x="912.86" default-y="-20.00">
        <pitch>
          <step>F</step>
          <octave>3</octave>
          </pitch>
        <duration>1</duration>
        <voice>1</voice>
        <type>quarter</type>
        <stem>none</stem>
        <lyric number="1">
          <syllabic>middle</syllabic>
          <text>da</text>
          </lyric>
        </note>
      <note default-x="961.90" default-y="-25.00">
        <pitch>
          <step>E</step>
          <octave>3</octave>
          </pitch>
        <duration>1</duration>
        <voice>1</voice>
        <type>quarter</type>
        <stem>none</stem>
        <lyric number="1">
          <syllabic>middle</syllabic>
          <text>ri</text>
          </lyric>
        </note>
      <note default-x="1010.94" default-y="-30.00">
        <pitch>
          <step>D</step>
          <octave>3</octave>
          </pitch>
        <duration>1</duration>
        <voice>1</voice>
        <type>quarter</type>
        <stem>none</stem>
        <lyric number="1">
          <syllabic>end</syllabic>
          <text>um,</text>
          </lyric>
        </note>
      <note default-x="1059.98" default-y="-25.00">
        <pitch>
          <step>E</step>
          <octave>3</octave>
          </pitch>
        <duration>1</duration>
        <voice>1</voice>
        <type>quarter</type>
        <stem>none</stem>
        <lyric number="1">
          <syllabic>single</syllabic>
          <text>et</text>
          </lyric>
        </note>
      </measure>
    <measure number="6" width="1110.61">
      <note default-x="63.56" default-y="-35.00">
        <pitch>
          <step>C</step>
          <octave>3</octave>
          </pitch>
        <duration>1</duration>
        <voice>1</voice>
        <type>quarter</type>
        <stem>none</stem>
        <lyric number="1">
          <syllabic>begin</syllabic>
          <text>ves</text>
          </lyric>
        </note>
      <note default-x="114.59" default-y="-30.00">
        <pitch>
          <step>D</step>
          <octave>3</octave>
          </pitch>
        <duration>1</duration>
        <voice>1</voice>
        <type>quarter</type>
        <stem>none</stem>
        <lyric number="1">
          <syllabic>end</syllabic>
          <text>tes,</text>
          </lyric>
        </note>
      <note default-x="165.61" default-y="-20.00">
        <pitch>
          <step>F</step>
          <octave>3</octave>
          </pitch>
        <duration>1</duration>
        <voice>1</voice>
        <type>quarter</type>
        <stem>none</stem>
        <lyric number="1">
          <syllabic>begin</syllabic>
          <text>Sur</text>
          </lyric>
        </note>
      <note default-x="216.63" default-y="-10.00">
        <pitch>
          <step>A</step>
          <octave>3</octave>
          </pitch>
        <duration>1</duration>
        <voice>1</voice>
        <type>quarter</type>
        <stem>none</stem>
        <lyric number="1">
          <syllabic>middle</syllabic>
          <text>re</text>
          </lyric>
        </note>
      <note default-x="267.65" default-y="-15.00">
        <pitch>
          <step>G</step>
          <octave>3</octave>
          </pitch>
        <duration>1</duration>
        <voice>1</voice>
        <type>quarter</type>
        <stem>none</stem>
        <lyric number="1">
          <syllabic>end</syllabic>
          <text>xit</text>
          </lyric>
        </note>
      <note default-x="318.68" default-y="-10.00">
        <pitch>
          <step>A</step>
          <octave>3</octave>
          </pitch>
        <duration>1</duration>
        <voice>1</voice>
        <type>quarter</type>
        <stem>none</stem>
        <lyric number="1">
          <syllabic>begin</syllabic>
          <text>Chris</text>
          </lyric>
        </note>
      <note default-x="369.70" default-y="-20.00">
        <pitch>
          <step>F</step>
          <octave>3</octave>
          </pitch>
        <duration>1</duration>
        <voice>1</voice>
        <type>quarter</type>
        <stem>none</stem>
        <lyric number="1">
          <syllabic>end</syllabic>
          <text>tus</text>
          </lyric>
        </note>
      <note default-x="420.72" default-y="-15.00">
        <pitch>
          <step>G</step>
          <octave>3</octave>
          </pitch>
        <duration>1</duration>
        <voice>1</voice>
        <type>quarter</type>
        <stem>none</stem>
        <lyric number="1">
          <syllabic>single</syllabic>
          <text>spes</text>
          </lyric>
        </note>
      <note default-x="471.74" default-y="-25.00">
        <pitch>
          <step>E</step>
          <octave>3</octave>
          </pitch>
        <duration>1</duration>
        <voice>1</voice>
        <type>quarter</type>
        <stem>none</stem>
        <lyric number="1">
          <syllabic>begin</syllabic>
          <text>me</text>
          </lyric>
        </note>
      <note default-x="522.77" default-y="-30.00">
        <pitch>
          <step>D</step>
          <octave>3</octave>
          </pitch>
        <duration>1</duration>
        <voice>1</voice>
        <type>quarter</type>
        <stem>none</stem>
        <lyric number="1">
          <syllabic>end</syllabic>
          <text>a,</text>
          </lyric>
        </note>
      <note default-x="573.79" default-y="-30.00">
        <pitch>
          <step>D</step>
          <octave>3</octave>
          </pitch>
        <duration>1</duration>
        <voice>1</voice>
        <type>quarter</type>
        <stem>none</stem>
        <lyric number="1">
          <syllabic>begin</syllabic>
          <text>prae</text>
          </lyric>
        </note>
      <note default-x="624.81" default-y="-15.00">
        <pitch>
          <step>G</step>
          <octave>3</octave>
          </pitch>
        <duration>1</duration>
        <voice>1</voice>
        <type>quarter</type>
        <stem>none</stem>
        <lyric number="1">
          <syllabic>middle</syllabic>
          <text>ce</text>
          </lyric>
        </note>
      <note default-x="675.83" default-y="-20.00">
        <pitch>
          <step>F</step>
          <octave>3</octave>
          </pitch>
        <duration>1</duration>
        <voice>1</voice>
        <type>quarter</type>
        <stem>none</stem>
        <lyric number="1">
          <syllabic>end</syllabic>
          <text>det</text>
          </lyric>
        </note>
      <note default-x="726.86" default-y="-15.00">
        <pitch>
          <step>G</step>
          <octave>3</octave>
          </pitch>
        <duration>1</duration>
        <voice>1</voice>
        <type>quarter</type>
        <stem>none</stem>
        <lyric number="1">
          <syllabic>begin</syllabic>
          <text>su</text>
          </lyric>
        </note>
      <note default-x="777.88" default-y="-10.00">
        <pitch>
          <step>A</step>
          <octave>3</octave>
          </pitch>
        <duration>1</duration>
        <voice>1</voice>
        <type>quarter</type>
        <stem>none</stem>
        <lyric number="1">
          <syllabic>end</syllabic>
          <text>os</text>
          </lyric>
        </note>
      <note default-x="828.90" default-y="-15.00">
        <pitch>
          <step>G</step>
          <octave>3</octave>
          </pitch>
        <duration>1</duration>
        <voice>1</voice>
        <type>quarter</type>
        <stem>none</stem>
        <lyric number="1">
          <syllabic>single</syllabic>
          <text>in</text>
          </lyric>
        </note>
      <note default-x="879.92" default-y="-20.00">
        <pitch>
          <step>F</step>
          <octave>3</octave>
          </pitch>
        <duration>1</duration>
        <voice>1</voice>
        <type>quarter</type>
        <stem>none</stem>
        <lyric number="1">
          <syllabic>begin</syllabic>
          <text>Ga</text>
          </lyric>
        </note>
      <note default-x="930.95" default-y="-15.00">
        <pitch>
          <step>G</step>
          <octave>3</octave>
          </pitch>
        <duration>1</duration>
        <voice>1</voice>
        <type>quarter</type>
        <stem>none</stem>
        <lyric number="1">
          <syllabic>middle</syllabic>
          <text>li</text>
          </lyric>
        </note>
      <note default-x="981.97" default-y="-25.00">
        <pitch>
          <step>E</step>
          <octave>3</octave>
          </pitch>
        <duration>1</duration>
        <voice>1</voice>
        <type>quarter</type>
        <stem>none</stem>
        <lyric number="1">
          <syllabic>middle</syllabic>
          <text>lae</text>
          </lyric>
        </note>
      <note default-x="1032.99" default-y="-30.00">
        <pitch>
          <step>D</step>
          <octave>3</octave>
          </pitch>
        <duration>1</duration>
        <voice>1</voice>
        <type>quarter</type>
        <stem>none</stem>
        <notations>
          <articulations>
            <caesura/>
            </articulations>
          </notations>
        <lyric number="1">
          <syllabic>end</syllabic>
          <text>am.</text>
          </lyric>
        </note>
      </measure>
    <measure number="7" width="1110.61">
      <note default-x="65.53" default-y="-10.00">
        <pitch>
          <step>A</step>
          <octave>3</octave>
          </pitch>
        <duration>1</duration>
        <voice>1</voice>
        <type>quarter</type>
        <stem>none</stem>
        <lyric number="1">
          <syllabic>begin</syllabic>
          <text>Cre</text>
          </lyric>
        </note>
      <note default-x="115.22" default-y="0.00">
        <pitch>
          <step>C</step>
          <octave>4</octave>
          </pitch>
        <duration>1</duration>
        <voice>1</voice>
        <type>quarter</type>
        <stem>none</stem>
        <lyric number="1">
          <syllabic>middle</syllabic>
          <text>den</text>
          </lyric>
        </note>
      <note default-x="164.91" default-y="5.00">
        <pitch>
          <step>D</step>
          <octave>4</octave>
          </pitch>
        <duration>1</duration>
        <voice>1</voice>
        <type>quarter</type>
        <stem>none</stem>
        <lyric number="1">
          <syllabic>end</syllabic>
          <text>dum</text>
          </lyric>
        </note>
      <note default-x="214.60" default-y="-10.00">
        <pitch>
          <step>A</step>
          <octave>3</octave>
          </pitch>
        <duration>1</duration>
        <voice>1</voice>
        <type>quarter</type>
        <stem>none</stem>
        <lyric number="1">
          <syllabic>single</syllabic>
          <text>est</text>
          </lyric>
        </note>
      <note default-x="264.29" default-y="-15.00">
        <pitch>
          <step>G</step>
          <octave>3</octave>
          </pitch>
        <duration>1</duration>
        <voice>1</voice>
        <type>quarter</type>
        <stem>none</stem>
        <lyric number="1">
          <syllabic>begin</syllabic>
          <text>ma</text>
          </lyric>
        </note>
      <note default-x="313.98" default-y="-10.00">
        <pitch>
          <step>A</step>
          <octave>3</octave>
          </pitch>
        <duration>1</duration>
        <voice>1</voice>
        <type>quarter</type>
        <stem>none</stem>
        <lyric number="1">
          <syllabic>end</syllabic>
          <text>gis</text>
          </lyric>
        </note>
      <note default-x="363.67" default-y="-10.00">
        <pitch>
          <step>A</step>
          <octave>3</octave>
          </pitch>
        <duration>1</duration>
        <voice>1</voice>
        <type>quarter</type>
        <stem>none</stem>
        <lyric number="1">
          <syllabic>begin</syllabic>
          <text>so</text>
          </lyric>
        </note>
      <note default-x="413.36" default-y="-10.00">
        <pitch>
          <step>A</step>
          <octave>3</octave>
          </pitch>
        <duration>1</duration>
        <voice>1</voice>
        <type>quarter</type>
        <stem>none</stem>
        <lyric number="1">
          <syllabic>end</syllabic>
          <text>li</text>
          </lyric>
        </note>
      <note default-x="463.05" default-y="-10.00">
        <pitch>
          <step>A</step>
          <octave>3</octave>
          </pitch>
        <duration>1</duration>
        <voice>1</voice>
        <type>quarter</type>
        <stem>none</stem>
        <lyric number="1">
          <syllabic>begin</syllabic>
          <text>Ma</text>
          </lyric>
        </note>
      <note default-x="512.74" default-y="0.00">
        <pitch>
          <step>C</step>
          <octave>4</octave>
          </pitch>
        <duration>1</duration>
        <voice>1</voice>
        <type>quarter</type>
        <stem>none</stem>
        <lyric number="1">
          <syllabic>middle</syllabic>
          <text>ri</text>
          </lyric>
        </note>
      <note default-x="562.43" default-y="-15.00">
        <pitch>
          <step>G</step>
          <octave>3</octave>
          </pitch>
        <duration>1</duration>
        <voice>1</voice>
        <type>quarter</type>
        <stem>none</stem>
        <lyric number="1">
          <syllabic>end</syllabic>
          <text>ae</text>
          </lyric>
        </note>
      <note default-x="612.12" default-y="-20.00">
        <pitch>
          <step>F</step>
          <octave>3</octave>
          </pitch>
        <duration>1</duration>
        <voice>1</voice>
        <type>quarter</type>
        <stem>none</stem>
        <lyric number="1">
          <syllabic>begin</syllabic>
          <text>ve</text>
          </lyric>
        </note>
      <note default-x="661.81" default-y="-25.00">
        <pitch>
          <step>E</step>
          <octave>3</octave>
          </pitch>
        <duration>1</duration>
        <voice>1</voice>
        <type>quarter</type>
        <stem>none</stem>
        <lyric number="1">
          <syllabic>middle</syllabic>
          <text>ra</text>
          </lyric>
        </note>
      <note default-x="711.50" default-y="-30.00">
        <pitch>
          <step>D</step>
          <octave>3</octave>
          </pitch>
        <duration>1</duration>
        <voice>1</voice>
        <type>quarter</type>
        <stem>none</stem>
        <lyric number="1">
          <syllabic>end</syllabic>
          <text>ci,</text>
          </lyric>
        </note>
      <note default-x="761.19" default-y="-35.00">
        <pitch>
          <step>C</step>
          <octave>3</octave>
          </pitch>
        <duration>1</duration>
        <voice>1</voice>
        <type>quarter</type>
        <stem>none</stem>
        <lyric number="1">
          <syllabic>single</syllabic>
          <text>quam</text>
          </lyric>
        </note>
      <note default-x="810.88" default-y="-20.00">
        <pitch>
          <step>F</step>
          <octave>3</octave>
          </pitch>
        <duration>1</duration>
        <voice>1</voice>
        <type>quarter</type>
        <stem>none</stem>
        <lyric number="1">
          <syllabic>begin</syllabic>
          <text>Iu</text>
          </lyric>
        </note>
      <note default-x="860.57" default-y="-25.00">
        <pitch>
          <step>E</step>
          <octave>3</octave>
          </pitch>
        <duration>1</duration>
        <voice>1</voice>
        <type>quarter</type>
        <stem>none</stem>
        <lyric number="1">
          <syllabic>middle</syllabic>
          <text>dae</text>
          </lyric>
        </note>
      <note default-x="910.26" default-y="-15.00">
        <pitch>
          <step>G</step>
          <octave>3</octave>
          </pitch>
        <duration>1</duration>
        <voice>1</voice>
        <type>quarter</type>
        <stem>none</stem>
        <lyric number="1">
          <syllabic>middle</syllabic>
          <text>o</text>
          </lyric>
        </note>
      <note default-x="959.94" default-y="-10.00">
        <pitch>
          <step>A</step>
          <octave>3</octave>
          </pitch>
        <duration>1</duration>
        <voice>1</voice>
        <type>quarter</type>
        <stem>none</stem>
        <lyric number="1">
          <syllabic>end</syllabic>
          <text>rum</text>
          </lyric>
        </note>
      <note default-x="1009.63" default-y="-10.00">
        <pitch>
          <step>A</step>
          <octave>3</octave>
          </pitch>
        <duration>1</duration>
        <voice>1</voice>
        <type>quarter</type>
        <stem>none</stem>
        <lyric number="1">
          <syllabic>begin</syllabic>
          <text>tur</text>
          </lyric>
        </note>
      <note default-x="1059.32" default-y="-15.00">
        <pitch>
          <step>G</step>
          <octave>3</octave>
          </pitch>
        <duration>1</duration>
        <voice>1</voice>
        <type>quarter</type>
        <stem>none</stem>
        <lyric number="1">
          <syllabic>end</syllabic>
          <text>bae</text>
          </lyric>
        </note>
      </measure>
    <measure number="8" width="1110.61">
      <note default-x="61.22" default-y="-20.00">
        <pitch>
          <step>F</step>
          <octave>3</octave>
          </pitch>
        <duration>1</duration>
        <voice>1</voice>
        <type>quarter</type>
        <stem>none</stem>
        <lyric number="1">
          <syllabic>begin</syllabic>
          <text>fal</text>
          </lyric>
        </note>
      <note default-x="110.06" default-y="-25.00">
        <pitch>
          <step>E</step>
          <octave>3</octave>
          </pitch>
        <duration>1</duration>
        <voice>1</voice>
        <type>quarter</type>
        <stem>none</stem>
        <lyric number="1">
          <syllabic>middle</syllabic>
          <text>la</text>
          </lyric>
        </note>
      <note default-x="158.90" default-y="-30.00">
        <pitch>
          <step>D</step>
          <octave>3</octave>
          </pitch>
        <duration>1</duration>
        <voice>1</voice>
        <type>quarter</type>
        <stem>none</stem>
        <notations>
          <articulations>
            <caesura/>
            </articulations>
          </notations>
        <lyric number="1">
          <syllabic>end</syllabic>
          <text>ci.</text>
          </lyric>
        </note>
      <note default-x="229.89" default-y="-10.00">
        <pitch>
          <step>A</step>
          <octave>3</octave>
          </pitch>
        <duration>1</duration>
        <voice>1</voice>
        <type>quarter</type>
        <stem>none</stem>
        <lyric number="1">
          <syllabic>begin</syllabic>
          <text>Sci</text>
          </lyric>
        </note>
      <note default-x="278.73" default-y="0.00">
        <pitch>
          <step>C</step>
          <octave>4</octave>
          </pitch>
        <duration>1</duration>
        <voice>1</voice>
        <type>quarter</type>
        <stem>none</stem>
        <lyric number="1">
          <syllabic>end</syllabic>
          <text>mus</text>
          </lyric>
        </note>
      <note default-x="327.57" default-y="5.00">
        <pitch>
          <step>D</step>
          <octave>4</octave>
          </pitch>
        <duration>1</duration>
        <voice>1</voice>
        <type>quarter</type>
        <stem>none</stem>
        <lyric number="1">
          <syllabic>begin</syllabic>
          <text>Chris</text>
          </lyric>
        </note>
      <note default-x="376.41" default-y="-10.00">
        <pitch>
          <step>A</step>
          <octave>3</octave>
          </pitch>
        <duration>1</duration>
        <voice>1</voice>
        <type>quarter</type>
        <stem>none</stem>
        <lyric number="1">
          <syllabic>end</syllabic>
          <text>tum</text>
          </lyric>
        </note>
      <note default-x="425.25" default-y="-15.00">
        <pitch>
          <step>G</step>
          <octave>3</octave>
          </pitch>
        <duration>1</duration>
        <voice>1</voice>
        <type>quarter</type>
        <stem>none</stem>
        <lyric number="1">
          <syllabic>begin</syllabic>
          <text>sur</text>
          </lyric>
        </note>
      <note default-x="474.09" default-y="-10.00">
        <pitch>
          <step>A</step>
          <octave>3</octave>
          </pitch>
        <duration>1</duration>
        <voice>1</voice>
        <type>quarter</type>
        <stem>none</stem>
        <lyric number="1">
          <syllabic>middle</syllabic>
          <text>rex</text>
          </lyric>
        </note>
      <note default-x="522.93" default-y="-10.00">
        <pitch>
          <step>A</step>
          <octave>3</octave>
          </pitch>
        <duration>1</duration>
        <voice>1</voice>
        <type>quarter</type>
        <stem>none</stem>
        <lyric number="1">
          <syllabic>middle</syllabic>
          <text>is</text>
          </lyric>
        </note>
      <note default-x="571.77" default-y="-10.00">
        <pitch>
          <step>A</step>
          <octave>3</octave>
          </pitch>
        <duration>1</duration>
        <voice>1</voice>
        <type>quarter</type>
        <stem>none</stem>
        <lyric number="1">
          <syllabic>end</syllabic>
          <text>se</text>
          </lyric>
        </note>
      <note default-x="620.61" default-y="-10.00">
        <pitch>
          <step>A</step>
          <octave>3</octave>
          </pitch>
        <duration>1</duration>
        <voice>1</voice>
        <type>quarter</type>
        <stem>none</stem>
        <lyric number="1">
          <syllabic>single</syllabic>
          <text>ex</text>
          </lyric>
        </note>
      <note default-x="669.45" default-y="0.00">
        <pitch>
          <step>C</step>
          <octave>4</octave>
          </pitch>
        <duration>1</duration>
        <voice>1</voice>
        <type>quarter</type>
        <stem>none</stem>
        <lyric number="1">
          <syllabic>begin</syllabic>
          <text>mor</text>
          </lyric>
        </note>
      <note default-x="718.29" default-y="-15.00">
        <pitch>
          <step>G</step>
          <octave>3</octave>
          </pitch>
        <duration>1</duration>
        <voice>1</voice>
        <type>quarter</type>
        <stem>none</stem>
        <lyric number="1">
          <syllabic>middle</syllabic>
          <text>tu</text>
          </lyric>
        </note>
      <note default-x="767.13" default-y="-20.00">
        <pitch>
          <step>F</step>
          <octave>3</octave>
          </pitch>
        <duration>1</duration>
        <voice>1</voice>
        <type>quarter</type>
        <stem>none</stem>
        <lyric number="1">
          <syllabic>end</syllabic>
          <text>is</text>
          </lyric>
        </note>
      <note default-x="815.97" default-y="-25.00">
        <pitch>
          <step>E</step>
          <octave>3</octave>
          </pitch>
        <duration>1</duration>
        <voice>1</voice>
        <type>quarter</type>
        <stem>none</stem>
        <lyric number="1">
          <syllabic>begin</syllabic>
          <text>ve</text>
          </lyric>
        </note>
      <note default-x="864.81" default-y="-30.00">
        <pitch>
          <step>D</step>
          <octave>3</octave>
          </pitch>
        <duration>1</duration>
        <voice>1</voice>
        <type>quarter</type>
        <stem>none</stem>
        <lyric number="1">
          <syllabic>end</syllabic>
          <text>re,</text>
          </lyric>
        </note>
      <note default-x="913.65" default-y="-35.00">
        <pitch>
          <step>C</step>
          <octave>3</octave>
          </pitch>
        <duration>1</duration>
        <voice>1</voice>
        <type>quarter</type>
        <stem>none</stem>
        <lyric number="1">
          <syllabic>single</syllabic>
          <text>Tu</text>
          </lyric>
        </note>
      <note default-x="962.49" default-y="-20.00">
        <pitch>
          <step>F</step>
          <octave>3</octave>
          </pitch>
        <duration>1</duration>
        <voice>1</voice>
        <type>quarter</type>
        <stem>none</stem>
        <lyric number="1">
          <syllabic>begin</syllabic>
          <text>CHRIS</text>
          </lyric>
        </note>
      <note default-x="1011.33" default-y="-25.00">
        <pitch>
          <step>E</step>
          <octave>3</octave>
          </pitch>
        <duration>1</duration>
        <voice>1</voice>
        <type>quarter</type>
        <stem>none</stem>
        <lyric number="1">
          <syllabic>end</syllabic>
          <text>TE</text>
          </lyric>
        </note>
      <note default-x="1060.17" default-y="-15.00">
        <pitch>
          <step>G</step>
          <octave>3</octave>
          </pitch>
        <duration>1</duration>
        <voice>1</voice>
        <type>quarter</type>
        <stem>none</stem>
        <lyric number="1">
          <syllabic>begin</syllabic>
          <text>no</text>
          </lyric>
        </note>
      </measure>
    <measure number="9" width="511.71">
      <note default-x="63.49" default-y="-10.00">
        <pitch>
          <step>A</step>
          <octave>3</octave>
          </pitch>
        <duration>1</duration>
        <voice>1</voice>
        <type>quarter</type>
        <stem>none</stem>
        <lyric number="1">
          <syllabic>end</syllabic>
          <text>stri</text>
          </lyric>
        </note>
      <note default-x="132.26" default-y="-10.00">
        <pitch>
          <step>A</step>
          <octave>3</octave>
          </pitch>
        <duration>1</duration>
        <voice>1</voice>
        <type>quarter</type>
        <stem>none</stem>
        <lyric number="1">
          <syllabic>single</syllabic>
          <text>Rex</text>
          </lyric>
        </note>
      <note default-x="201.03" default-y="-15.00">
        <pitch>
          <step>G</step>
          <octave>3</octave>
          </pitch>
        <duration>1</duration>
        <voice>1</voice>
        <type>quarter</type>
        <stem>none</stem>
        <lyric number="1">
          <syllabic>begin</syllabic>
          <text>mis</text>
          </lyric>
        </note>
      <note default-x="269.80" default-y="-20.00">
        <pitch>
          <step>F</step>
          <octave>3</octave>
          </pitch>
        <duration>1</duration>
        <voice>1</voice>
        <type>quarter</type>
        <stem>none</stem>
        <lyric number="1">
          <syllabic>middle</syllabic>
          <text>er</text>
          </lyric>
        </note>
      <note default-x="338.57" default-y="-25.00">
        <pitch>
          <step>E</step>
          <octave>3</octave>
          </pitch>
        <duration>1</duration>
        <voice>1</voice>
        <type>quarter</type>
        <stem>none</stem>
        <lyric number="1">
          <syllabic>middle</syllabic>
          <text>er</text>
          </lyric>
        </note>
      <note default-x="407.34" default-y="-30.00">
        <pitch>
          <step>D</step>
          <octave>3</octave>
          </pitch>
        <duration>1</duration>
        <voice>1</voice>
        <type>quarter</type>
        <stem>none</stem>
        <notations>
          <articulations>
            <caesura/>
            </articulations>
          </notations>
        <lyric number="1">
          <syllabic>end</syllabic>
          <text>re.</text>
          </lyric>
        </note>
      <barline location="right">
        <bar-style>light-heavy</bar-style>
        </barline>
      </measure>
    </part>
  </score-partwise>
